/* XPM */
static char *f530983d3dac4674fe4c56b1d995ef82bossj8gV4tbNeEB2[] = {
/* columns rows colors chars-per-pixel */
"32 32 36 1 ",
"  c #602020",
". c #6A2020",
"X c #742020",
"o c #7E2A2A",
"O c gray25",
"+ c gray33",
"@ c #686868",
"# c gray43",
"$ c #706870",
"% c #7C7C7C",
"& c #800000",
"* c #940000",
"= c #9E0000",
"- c #A80000",
"; c #BC1414",
": c #883434",
"> c #A22424",
", c #C61E1E",
"< c #D02828",
"1 c #D03A32",
"2 c #B64A42",
"3 c #80787C",
"4 c #E46050",
"5 c #F89878",
"6 c gray51",
"7 c #909090",
"8 c gray61",
"9 c #A090A0",
"0 c #EE9484",
"q c #C0B0B8",
"w c #F8C8B8",
"e c gray77",
"r c #CACACA",
"t c gray87",
"y c #D8C0E0",
"u c #F8F8F8",
/* pixels */
"9999qqqqqqqqqqqqqqqqqq99qqqqqqqq",
"9999qqqqqqqqqqqqqqqqqq99qqqqqqqq",
"qqqq99qqqq99qqqqyyqqqqqqqqqqqqqq",
"qqqq99qqqq99qqqqyyqqqqqqqqqqqqqq",
"qqqqqq99qqqqqqqqqqqqqqqqqq9999qq",
"qqqqqq99qqqqqqqqqqqqqqqqqq9999qq",
"qqqqqq99qqqqyyqqqqqqqqqq99qqqq99",
"qqqqqq99qqqqyyqqqqqqqqqq99qqqq99",
"qqqqqqqqqqqqqqqqqqqqqqqqqq9999qq",
"qqqqqqqqqqqqqqqqqqqqqqqqqq9999qq",
"qqqqqqqq99qqqqqqqqqqqqqqqqqqqqqq",
"qqqqqqqq99qqqqqqqqqqqqqqqqqqqqqq",
"qq99qqqq99qqqqqqqq99qqqqqqqqqqqq",
"qq99qqqq99qqqOOOOOO9qqqqqqqqqqqq",
"qqqqqqqq99333XXXXXX333qqqqyyqqqq",
"qqqqqqqq99OOO------OOOqqqqyyqqqq",
"yyqqqqqq$O-;<54<<;--*&O3yyqqyyqq",
"yyqqqqqq$O;14w04<,;-=*O3yyqqyyqq",
"qqqqqqqq3O<45uw5<<<---O3qqyyqqqq",
"qqqqqqqOX-<<<54<<<<---& Oqyyqqqq",
"qqqqqqqOo;<<<42::>;---& Oqqqqqqq",
"qqqqqqqO:<<<<<:OOX----& Oqqqqqqq",
"qqqqyyqOOO<<<O8u7@O-*&OOOqqqqqqq",
"qqqqyyqO#8:::O6e7@OX. @+Oqqqqqqq",
"qqyyqqyO8uOOOO@77@OOOO7@Oqqqqqqq",
"qqyyqqyy3Ouuuu8OO@7777O3qqqqqqqq",
"qqqqyyqq3Oetuur8@%7777O$qq99qq99",
"qqqqyyqq3O7euuuu777777O$qq99qq99",
"qqqqqqqqqqOOO777777OOOqqqqqqqqqq",
"qqqqqqqqqq333@@@@@@333qqqqqqqqqq",
"qqqqqqqqqqqqqOOOOOOqqqqqqqqqqq99",
"qqqqqqqqqqqqqqqqqqqqqqqqqqqqqq99"
};
