/* XPM */
static char *e2c0e151cfe14c65bef69e9eba405193X0uRxl95fXSSeKHm[] = {
/* columns rows colors chars-per-pixel */
"32 32 8 1 ",
"  c #300830",
". c #302850",
"X c #484068",
"o c #685870",
"O c #807088",
"+ c #A090A0",
"@ c #C0B0B8",
"# c #D8C0E0",
/* pixels */
"@@@@@@@@ooXX####..ooOOXX@@@@@@@@",
"@@@@@@@@ooXX####..ooOOXX@@@@@@@@",
"@@@@oo  ..##++      ......XX@@@@",
"@@@@oo  ..##++      ......XX@@@@",
"@@oo    ..++              ..XX@@",
"@@oo    ..++              ..XX@@",
"@@..    ..oo++            oooooo",
"@@..    ..oo++            oooooo",
"oo      ..++oo##        oo####oo",
"oo      ..++oo##        oo####oo",
"..      ..++  oo##      ##++  XX",
"..      ..++  oo##      ##++  XX",
"        ..++    oo##  oo##    ..",
"        ..++    oo##  oo##    ..",
"        ..oo++    oo++..##    ..",
"        ..oo++    oo++..##    ..",
"        ..oooo++    oo..++    ..",
"        ..oooo++    oo..++    ..",
"..      ..oo  oo++    ..++    ..",
"..      ..oo  oo++    ..++    ..",
"..        ..    oo++  ..++    OO",
"..        ..    oo++  ..++    OO",
"oo        ..oo    oo++..++  ..oo",
"oo        ..oo    oo++..++  ..oo",
"@@..        ....    oo....  ..@@",
"@@..        ....    oo....  ..@@",
"@@oo....      ....        ..XX@@",
"@@oo....      ....        ..XX@@",
"@@@@oo....      ..      ..oo@@@@",
"@@@@oo....      ..      ..oo@@@@",
"@@@@@@@@oo..      ......@@@@@@@@",
"@@@@@@@@oo..      ......@@@@@@@@"
};
