/* XPM */
static char *c0c5e4386d5f4064bf470435fae7b6a001Tg0niYmzJc8M9G[] = {
/* columns rows colors chars-per-pixel */
"32 32 215 2 ",
"   c black",
".  c #070709",
"X  c #0F0808",
"o  c #0E0E12",
"O  c #0C101A",
"+  c #181617",
"@  c #15151B",
"#  c #1B181C",
"$  c #1C1C24",
"%  c #3E362E",
"&  c #383848",
"*  c #483A46",
"=  c #423949",
"-  c #4B3F4F",
";  c #583C44",
":  c #683E42",
">  c #703F41",
",  c #3D4159",
"<  c #304068",
"1  c #3E4E7A",
"2  c #464247",
"3  c #474444",
"4  c #52404D",
"5  c #494756",
"6  c #484858",
"7  c #5D4A54",
"8  c #6C4246",
"9  c #6E454E",
"0  c #664C4D",
"q  c #784040",
"w  c #7E4643",
"e  c #605052",
"r  c #60585C",
"t  c #5A5664",
"y  c #47537B",
"u  c #535978",
"i  c #645A6A",
"p  c #725064",
"a  c #6B6560",
"s  c #6C6367",
"d  c #786E73",
"f  c #746D79",
"g  c #756F7C",
"h  c #844B46",
"j  c #82404A",
"k  c #814E4F",
"l  c #87504B",
"z  c #88534F",
"x  c #90564C",
"c  c #884050",
"v  c #845054",
"b  c #8A5C5E",
"n  c #945D54",
"m  c #946053",
"M  c #966056",
"N  c #9C6152",
"B  c #A86C58",
"V  c #B4775E",
"C  c #915E6E",
"Z  c #9D6B61",
"A  c #936A6D",
"S  c #997167",
"D  c #996A73",
"F  c #85717D",
"G  c #977175",
"H  c #9F7573",
"J  c #91727C",
"K  c #9C707C",
"L  c #9C787C",
"P  c #A57061",
"I  c #A27A67",
"U  c #A07A7C",
"Y  c #B4806C",
"T  c #B0846E",
"R  c #BF8469",
"E  c #AB8079",
"W  c #B58572",
"Q  c #B68778",
"!  c #B88C7C",
"~  c #C08264",
"^  c #C38769",
"/  c #CC8D6A",
"(  c #C88B6C",
")  c #D2936D",
"_  c #C39077",
"`  c #C3987A",
"'  c #D09573",
"]  c #D89870",
"[  c #DB9D75",
"{  c #D19979",
"}  c #E1A77F",
"|  c #4C5C8C",
" . c #515D85",
".. c #5A698B",
"X. c #5B719C",
"o. c #6C6492",
"O. c #69689A",
"+. c #566EAE",
"@. c #5A72B2",
"#. c #5B77BF",
"$. c #6270AD",
"%. c #6670AC",
"&. c #6C78B0",
"*. c #6578C0",
"=. c #817082",
"-. c #A17F83",
";. c #7888B8",
":. c #7397BD",
">. c #7590CA",
",. c #6080D0",
"<. c #6688D4",
"1. c #6C90D8",
"2. c #7298DC",
"3. c #759CDE",
"4. c #78A0E0",
"5. c #7BA4E2",
"6. c #7EA8E4",
"7. c #90848A",
"8. c #928A8E",
"9. c #9C8F95",
"0. c #889090",
"q. c #8F9495",
"w. c #96989A",
"e. c #AB8983",
"r. c #A5868B",
"t. c #A88789",
"y. c #B18A80",
"u. c #BB9183",
"i. c #BC9488",
"p. c #A98D92",
"a. c #AE949A",
"s. c #9497A2",
"d. c #9398A8",
"f. c #A090A0",
"g. c #A89AA1",
"h. c #BA9FA0",
"j. c #9DA5AB",
"k. c #AFA1AA",
"l. c #ABA4A9",
"z. c #A6ABAB",
"x. c #B7A2A9",
"c. c #B2A8AE",
"v. c #A4ACB4",
"b. c #B6AAB0",
"n. c #BBA9B1",
"m. c #B9ACB3",
"M. c #ABB3BD",
"N. c #B6B2BB",
"B. c #B4B9B9",
"V. c #C69D8D",
"C. c #C89F8B",
"Z. c #D2A082",
"A. c #D2A885",
"S. c #CBA392",
"D. c #D7B19C",
"F. c #E0A882",
"G. c #E4AC84",
"H. c #E7B189",
"J. c #E4B08B",
"K. c #E9B48C",
"L. c #EAB68E",
"P. c #E2B391",
"I. c #E4B292",
"U. c #EDBB93",
"Y. c #C6AAA6",
"T. c #C0B0B8",
"R. c #E7BDA5",
"E. c #ECC09D",
"W. c #F0C098",
"Q. c #F1C39C",
"!. c #F0C49F",
"~. c #E8C5A9",
"^. c #F3C7A2",
"/. c #F3C9A4",
"(. c #F0C8A6",
"). c #F3CBA6",
"_. c #F4CCA8",
"`. c #F4D0AF",
"'. c #EBCAB6",
"]. c #F7D5B4",
"[. c #F7D7B6",
"{. c #F8D8B8",
"}. c #F9DABD",
"|. c #B7BCC2",
" X c #B2BAC6",
".X c #87B4EA",
"XX c #8AB8EC",
"oX c #8DBCEE",
"OX c #C4B4CC",
"+X c #B9C1CF",
"@X c #90C0F0",
"#X c #C3C6C6",
"$X c #C0C8D8",
"%X c #C7CFDD",
"&X c #D1D5DD",
"*X c #F3D6C2",
"=X c #F9DDC1",
"-X c #F7DEC9",
";X c #F7DECA",
":X c #F9E3D0",
">X c #FAE5D1",
",X c #F9E6D7",
"<X c #D8C0E0",
"1X c #D0D5E1",
"2X c #D8DBE1",
"3X c #E1E2E2",
"4X c #E0E2E8",
"5X c #E3E6EC",
"6X c #EBECEF",
"7X c #FCEFE3",
"8X c #FBEDE4",
"9X c #FCF2EA",
"0X c #EFF0F3",
"qX c #F7F6F9",
"wX c #FFFDFD",
/* pixels */
"f.f.f.f.T.T.T.T.T.T.T.T.T.T.T.T.T.T.T.T.T.T.a.f.N.b.T.T.T.T.T.T.",
"f.f.f.f.T.T.T.T.T.T.T.T.T.a.q q q q q q A N.a.f.T.N.T.T.T.T.T.T.",
"T.T.T.T.f.f.T.T.T.T.f.f.a.t.M M M M M M E Y.h.a.n.T.T.T.T.T.T.T.",
"T.T.T.T.f.f.T.T.T.T.f.f.q M W.W.W.W.W.W.H.] N q h.T.T.T.T.T.T.T.",
"T.T.T.T.T.T.f.f.T.T.r.L Y _ W.W.W.).].-X*X'.S.! U r.f.f.f.f.T.T.",
"T.T.T.T.T.T.f.f.T.T.b q W.W.W.W.W.`.=XwXwXwX>X{.z b f.f.f.f.T.T.",
"T.T.T.T.T.T.f.f.p.k R / W.W.W.).].].{.}.}.}.}.].' V k -.T.T.f.f.",
"T.T.T.T.T.T.f.f.r.q ^ [ W.W.W._.{.{.{.{.].].].].F.( k -.T.T.f.f.",
"T.T.T.T.T.T.T.T.r.q Z.W.W.W.W._.{.{.{.{.`.E.} ] `.(.] i.f.f.N.T.",
"T.T.T.T.T.T.n.r.H N { H.W.W.W.^.].{.{._.Q.H.H.H.].`.J.u.J p.T.T.",
"T.T.T.T.T.T.x.q N ] ] ] W.W.W.W.U.].].U.H.] E.{.{.{.{.! > a.T.T.",
"T.T.T.T.T.T.x.q N ] ] ] } } } K.U.Q.).W.W.E.;X7X8X:X/.W > a.T.T.",
"T.T.f.f.T.T.x.q N ] ] ] ] ] ] G.Q.W.W.W.).{.7XwXwX8XU.W j a.T.T.",
"T.T.f.f.T.T.x.q N ] ] ] ] ] ] B q q z W.W.W.P q X % {.! > a.T.T.",
"T.T.T.T.T.T.x.b Z ~ ) ] ] ) ~ B x n P K.U.W.Q G 3 a '.Q > a.T.T.",
"T.T.T.T.T.T.T.T.J q ~ ] ] ~ q B ] K.U.] F.U.,XwXwX0X$Xt.j a.T.T.",
"<X<XT.T.T.T.T.T.=.; n B ] R q B ] U.U.] I.;X9XwX5X&Xv.8.d T.T.T.",
"<X<XT.T.T.T.T.N.g & : > ] ^ q B ] K.U.] R.wXwXwX%X X0.0.0.OXT.T.",
"T.T.T.T.T.T.c.t u @.@.%.0 0 q h x / } ] D.1X|.z.4X6X3XB.0.c.T.T.",
"T.T.T.T.T.T.x.&  .*.<.#.& * q > > ~ ] ] D.+Xj.q.0XwXwX#X0.x.T.T.",
"T.T.T.T.T.6 , ,.1.@X@X@X,.@.6 6 5 8 h ) I 5 d.+XqX0X$X|.T.T.T.T.",
"T.T.T.T.T.7 4 O.;.@X@X@X,.,.X... .9 h V Z g s.M.4X2X XN.T.T.T.T.",
"T.T.T.T.<Xv q q =.@X@X@X#.1.@X4.,.p q q A T.g.0. X X0.g.T.T.T.T.",
"T.T.T.t.K V.C.C.e.=.>.3. .X.@X.X.X%.o.j D m.c.z.j.v.l.n.T.T.T.T.",
"T.T.<XK > ~.{.{.C.q %.#.& u @X@XoX1.*.c C f.T.T.q.w.T.T.T.T.T.T.",
"T.T.<XK q L.Q.Q._ q 4 6 #.#.<.5.oX.X.X= i f.T.T.m.m.T.T.T.T.T.T.",
"T.T.T.G v ` A.A.T 8 * & ,.,.,.3.XX.X:.6 f T.f.f.T.T.f.f.T.T.f.f.",
"T.T.T.T.<X#     @ & & & ,.,.,.,.#.$ + T.T.T.f.f.T.T.f.f.T.T.f.f.",
"T.T.T.T.T.s r r 2 $ $ $ | | | 1 < O + T.T.T.T.T.T.T.T.T.T.T.T.T.",
"T.T.T.T.T.T.T.T.d       & & & $     + T.T.T.T.T.T.T.T.T.T.T.T.T.",
"T.T.T.T.T.T.T.T.g.7.7.7.o o o .   s 9.T.T.T.T.T.T.T.T.T.T.T.f.f.",
"T.T.T.T.T.T.T.T.T.T.T.T.          7.T.T.T.T.T.T.T.T.T.T.T.T.f.f."
};
