/* XPM */
static char *afa9ada426bb4de0a0e1ff04bf035bd0knNOpXlnDgejiUOS[] = {
/* columns rows colors chars-per-pixel */
"32 32 3 1 ",
"  c #A090A0",
". c #C0B0B8",
"X c #D8C0E0",
/* pixels */
"    ..................  ........",
"    ..................  ........",
"....  ....  ....XX..............",
"....  ....  ....XX..............",
"......  ..................    ..",
"......  ..................    ..",
"......  ....XX..........  ....  ",
"......  ....XX..........  ....  ",
"..........................    ..",
"..........................    ..",
"........  ......................",
"........  ......................",
"..  ....  ........  ............",
"..  ....  ........  ............",
"........  ................XX....",
"........  ................XX....",
"XX......  ..............XX..XX..",
"XX......  ..............XX..XX..",
"..........  ..............XX....",
"..........  ..............XX....",
"..........    ..................",
"..........    ..................",
"....XX......      ..............",
"....XX......      ..............",
"..XX..XX........      ..........",
"..XX..XX........      ..........",
"....XX........  ......  ..  ..  ",
"....XX........  ......  ..  ..  ",
"................XX..............",
"................XX..............",
"..............................  ",
"..............................  "
};
