/* XPM */
static char *_2793970ddad4273c337bc7aa803182a8rjOBfxOusYAohSf[] = {
/* columns rows colors chars-per-pixel */
"32 32 7 1 ",
"  c #302850",
". c #484068",
"X c #685870",
"o c #807088",
"O c #A090A0",
"+ c #C0B0B8",
"@ c #D8C0E0",
/* pixels */
"OOOO++++++++++++++++++OO++++++++",
"OOOO++++++++++++++++++OO++++++++",
"++++OO++..XXXX++@@++++++++++++++",
"++++OO++..XXXX++@@++++++++++++++",
"++++++XX++@@OO..++++++XX....OO++",
"++++++XX++@@OO..++++++XX....OO++",
"++++XXOO@@@@OOoo..++XX++++OO..OO",
"++++XXOO@@@@OOoo..++XX++++OO..OO",
"++++XXOO++++ooXX..++XXOO++OO..++",
"++++XXOO++++ooXX..++XXOO++OO..++",
"++XXooOOOOooXXXX....XXOOOOooXX..",
"++XXooOOOOooXXXX....XXOOOOooXX..",
"++XXooOOooXXXXXX....ooooXXXXXX..",
"++XXooOOooXXXXXX....ooooXXXXXX..",
"++..ooooXXXXXXXX..  ..XX..XXXX..",
"++..ooooXXXXXXXX..  ..XX..XXXX..",
"..XXXXXXXXXXXX....  ....oo..XX++",
"..XXXXXXXXXXXX....  ....oo..XX++",
"..XXXX....XX......  ooOO++oo..++",
"..XXXX....XX......  ooOO++oo..++",
"++....++oo..........OO@@++OO..++",
"++....++oo..........OO@@++OO..++",
"++..++@@OOoo......XXOO++OOooXX..",
"++..++@@OOoo......XXOO++OOooXX..",
"++..OOOOXXoo......XXXXooooXXXX..",
"++..OOOOXXoo......XXXXooooXXXX..",
"++XXXXXXXXXX..XX....XXXXXXXX..OO",
"++XXXXXXXXXX..XX....XXXXXXXX..OO",
"++++XXXXXX..oo++ooXX..XXXX..OO++",
"++++XXXXXX..oo++ooXX..XXXX..OO++",
"++++++++++++++++++++++++++++++OO",
"++++++++++++++++++++++++++++++OO"
};
